<svg xmlns="http://www.w3.org/2000/svg" width="123.957" height="126.303" viewBox="0 0 123.957 126.303"><path d="M45.984,125.289a14.785,14.785,0,0,1-7.881-8.8,8.714,8.714,0,0,1-.249-5.615,12.323,12.323,0,0,0,.146-2.81,12.229,12.229,0,0,1,1.056-4.94,11.676,11.676,0,0,1,7.119-5.845,11.322,11.322,0,0,1,9.559,1.77,18.583,18.583,0,0,1,6.528,8.689c1.239,3.266,1.651,7.04.236,10.32a14.465,14.465,0,0,1-7.865,7.508,9.964,9.964,0,0,1-3.824.734A12.365,12.365,0,0,1,45.984,125.289Zm2.58-22.1c-2,.618-3.016,2.621-3.662,4.453-.71,2.179-1.2,4.6-.405,6.831.255.738-.417,1.625.183,2.263a8.532,8.532,0,0,0,5.449,3.56,7.534,7.534,0,0,0,6.847-3.516,6.7,6.7,0,0,0,.6-5.179A12.407,12.407,0,0,0,52.511,104a5.452,5.452,0,0,0-2.913-.945A3.789,3.789,0,0,0,48.563,103.191Zm48.627,16.332a13.264,13.264,0,0,1-6.348-3.515,16.668,16.668,0,0,1-4.528-6.617,8.717,8.717,0,0,1-.239-5.613c.412-1.321.075-2.721.321-4.07a16.429,16.429,0,0,1,1.493-5.24,10.054,10.054,0,0,1,5.58-4.527A11.261,11.261,0,0,1,103.9,91.454a17.837,17.837,0,0,1,4.464,4.946,18.679,18.679,0,0,1,2.786,12.044,13.185,13.185,0,0,1-4.626,8.246,12.236,12.236,0,0,1-7.639,2.989A9.162,9.162,0,0,1,97.191,119.523Zm-.849-23.369c-2.1,1.076-3.178,3.384-3.57,5.61a7.377,7.377,0,0,0,.1,4.267,16.155,16.155,0,0,0,4.5,6.179,3.345,3.345,0,0,0,2.713.956,6.083,6.083,0,0,0,4.276-2.965,7.77,7.77,0,0,0,.869-5.4c-.464-3.293-2.1-6.709-5.127-8.346a5.113,5.113,0,0,0-2.348-.695A2.576,2.576,0,0,0,96.341,96.154ZM25,93.483a11.916,11.916,0,0,1-6.809-6.235A5.852,5.852,0,0,1,18,82.643c.3-.744,1.184-1.153,1.235-2.01a15.606,15.606,0,0,1,4.159-8.059,13.7,13.7,0,0,1,4.345-3.285,11.55,11.55,0,0,1,7.274-.118,11.762,11.762,0,0,1,7.5,5.264A11.772,11.772,0,0,1,43,84.727a15.716,15.716,0,0,1-7.481,7.91A14.5,14.5,0,0,1,29.1,94.2,11.7,11.7,0,0,1,25,93.483Zm4.692-18.221a11.739,11.739,0,0,0-3.743,3.526,9.545,9.545,0,0,0-1.893,4.771c-.108.745.578,1.2,1.062,1.627a7.461,7.461,0,0,0,5.07,2.143,9.145,9.145,0,0,0,3.828-1.083,8.119,8.119,0,0,0,3.836-4.861,5.954,5.954,0,0,0-.335-3.873,6.185,6.185,0,0,0-5.294-2.79A6,6,0,0,0,29.691,75.262Zm34.1,17.249a16.127,16.127,0,0,1-7.55-7.544,27.358,27.358,0,0,1-1.011-2.938A3.583,3.583,0,0,1,53.6,81a6.387,6.387,0,0,1-1.219-4.156c.119-2.992,1.877-5.6,3.812-7.767a24.892,24.892,0,0,1,4.476-3.919,12.267,12.267,0,0,1,10.2-1.515,18.731,18.731,0,0,1,7.875,4.943,15.773,15.773,0,0,1,4.8,9.5,16.157,16.157,0,0,1-3.869,11.68,12.113,12.113,0,0,1-7.011,4.079,11.832,11.832,0,0,1-2.454.253A14.468,14.468,0,0,1,63.787,92.511ZM65.3,69.4a17.435,17.435,0,0,0-3.951,3.017,17,17,0,0,0-2.515,2.944,9.665,9.665,0,0,1,2.384,3.422,23.029,23.029,0,0,0,2.424,3.748,11.873,11.873,0,0,0,6.093,4.409,5.625,5.625,0,0,0,4.332-.451,8.358,8.358,0,0,0,3.476-4.614,7.907,7.907,0,0,0-.117-6.113,13.332,13.332,0,0,0-6.619-6.3,6.856,6.856,0,0,0-2.884-.647A5.986,5.986,0,0,0,65.3,69.4Zm35.245,9.961a11.9,11.9,0,0,1-1.8-8.368c.2-1.167,1.116-2.043,1.338-3.205,1.09-4.084,5.069-6.733,9.043-7.537a11.821,11.821,0,0,1,6.089.014,12.058,12.058,0,0,1,5.579,4.124,14.223,14.223,0,0,1,3,10.859,12.368,12.368,0,0,1-7.265,9.137,11.954,11.954,0,0,1-4.975,1.056A12.8,12.8,0,0,1,100.545,79.358ZM108.36,66.3c-1.971.81-4.018,2.331-4.394,4.55a12.973,12.973,0,0,0,4.224,6.2,7.044,7.044,0,0,0,5.252,1.71,6,6,0,0,0,4.31-4.069,7.36,7.36,0,0,0-.522-5.316,6.5,6.5,0,0,0-4.1-3.7,6.569,6.569,0,0,0-1.219-.111A10.018,10.018,0,0,0,108.36,66.3ZM83.341,55.326A18.32,18.32,0,0,1,74.633,42.6c-.26-2.053-.3-4.422,1.123-6.09.478-.669,1.414-.631,2.008-1.11,2.271-3.666,6.475-5.631,10.567-6.5a10.1,10.1,0,0,1,8.728,2.236,16.483,16.483,0,0,1,5.261,7.769,14.64,14.64,0,0,1-1.377,11.258,13.221,13.221,0,0,1-7.078,6.1,11.885,11.885,0,0,1-4.22.76A12.571,12.571,0,0,1,83.341,55.326Zm6.967-21.245a14.725,14.725,0,0,0-3.988.9,10.974,10.974,0,0,0-5.13,3.632c-.3.452-.7,1.02-.36,1.566a21.216,21.216,0,0,0,6.234,8.659,5.643,5.643,0,0,0,5.186,1.075,7.347,7.347,0,0,0,4.589-4.337A8.426,8.426,0,0,0,95.883,37a7.2,7.2,0,0,0-5.363-2.921C90.45,34.077,90.379,34.078,90.308,34.081ZM49.635,56.173A13.754,13.754,0,0,1,42,53.206a21.742,21.742,0,0,1-6.61-8.13,7.7,7.7,0,0,1-.442-6.088,3.815,3.815,0,0,1,1.36-1.564,4.526,4.526,0,0,0,1.059-1.582A17.5,17.5,0,0,1,41.3,31.017a11.02,11.02,0,0,1,3.687-2.284,10.843,10.843,0,0,1,4.549-.377,18.59,18.59,0,0,1,11.429,5.265A13.449,13.449,0,0,1,64.7,44a12.385,12.385,0,0,1-3.148,6.938A15.17,15.17,0,0,1,50.27,56.188Q49.953,56.188,49.635,56.173Zm-2.2-22.189a9.193,9.193,0,0,0-4.652,3.046,7.538,7.538,0,0,0-1.69,2.486,26.209,26.209,0,0,0,3,4.391,20.21,20.21,0,0,0,4.148,4.111,5.039,5.039,0,0,0,3.244.941,8.719,8.719,0,0,0,4.2-1.32,6.689,6.689,0,0,0,3.255-5.1,8.148,8.148,0,0,0-2.508-6.2,10.534,10.534,0,0,0-7.093-2.487A13.255,13.255,0,0,0,47.439,33.984ZM9.327,54.92A13.668,13.668,0,0,1,3.113,50.68,21.459,21.459,0,0,1,1,47.475a13.692,13.692,0,0,1-.909-6.927,12.839,12.839,0,0,1,1.669-5.67,12.676,12.676,0,0,1,6.5-4.808,11.478,11.478,0,0,1,9.277,1.1c3.736,2.125,6.866,5.739,7.52,10.085a12.44,12.44,0,0,1-2.085,8.678,13.218,13.218,0,0,1-5.419,5.053,8.6,8.6,0,0,1-3.694.779A13.8,13.8,0,0,1,9.327,54.92Zm.719-18.633C7.786,37.33,6.738,39.795,6.288,42.1a9.823,9.823,0,0,0-.053,4.321,7.693,7.693,0,0,0,2.057,1.66,10.226,10.226,0,0,0,5.9,1.618,5.363,5.363,0,0,0,3.2-2.329,9.352,9.352,0,0,0,2.026-4.657,5.466,5.466,0,0,0-.932-3.273,8.45,8.45,0,0,0-4.3-3.4,5.081,5.081,0,0,0-1.774-.316A5.274,5.274,0,0,0,10.047,36.287Zm18.191-15.22a12.12,12.12,0,0,1-6.935-4.8,10.76,10.76,0,0,1-1.808-2.608,7.435,7.435,0,0,1-.353-4.237A14.7,14.7,0,0,1,22.649,2.9,7.616,7.616,0,0,1,25.875.65,9.855,9.855,0,0,1,32.62.543a11.006,11.006,0,0,1,3.362,18.074,8.984,8.984,0,0,1-6.162,2.622A7.314,7.314,0,0,1,28.237,21.067Zm.4-15.6a8.46,8.46,0,0,0-3.755,2.169A9.3,9.3,0,0,0,22.626,11.7c1.579.938,2.892,2.246,4.45,3.216a4.57,4.57,0,0,0,3.278.888,5.113,5.113,0,0,0,3.909-4.259,6.1,6.1,0,0,0-2.536-5.78,2.946,2.946,0,0,0-1.739-.521A4.333,4.333,0,0,0,28.64,5.465Z" fill="#ae6732"/></svg>