<svg xmlns="http://www.w3.org/2000/svg" xmlns:xlink="http://www.w3.org/1999/xlink" width="215" height="125" viewBox="0 0 215 125"><defs><clipPath id="a"><rect width="215" height="125" transform="translate(1608 1282)" fill="#fff" stroke="#707070" stroke-width="1"/></clipPath></defs><g transform="translate(-1608 -1282)" clip-path="url(#a)"><path d="M0,136.32,3.882,78.733C4.611,67.927,5.364,56.752,9.37,46.3,16.862,26.741,35.905,11.07,60.309,4.377c22.244-6.1,46.225-4.61,66.957-2.734C139.159,2.721,151.534,4.4,160.65,11.877c14.309,11.736,20.932,29.245,27.335,46.176,1.253,3.315,2.55,6.742,3.864,10,8.411,20.86,11.988,43.29,15.447,64.982l-3.664.584c-3.427-21.489-6.97-43.709-15.224-64.18-1.329-3.3-2.632-6.742-3.893-10.075C178.284,42.89,171.84,25.853,158.3,14.746c-8.31-6.818-19.579-8.341-31.367-9.408C106.523,3.49,82.936,2.017,61.29,7.954,38.02,14.337,19.906,29.166,12.835,47.623,9.028,57.558,8.294,68.45,7.583,78.982L3.7,136.569Zm12.718-3.851a358.993,358.993,0,0,1,6.515-68.014c1.972-10.2,4.744-21.763,12.73-29.979,7.145-7.351,17.218-10.68,26.923-13.46,14.309-4.1,29.758-7.935,45.776-8.235,12.149-.227,29.819,1.659,45.006,11.93,12.234,8.272,22.082,21.461,29.268,39.2,9.837,24.286,14.006,38.476,9.769,63.586l-3.658-.618c4.082-24.177.021-37.952-9.549-61.574C168.593,48.261,159.2,35.637,147.59,27.785c-14.383-9.726-31.245-11.51-42.859-11.292-15.591.291-30.757,4.061-44.823,8.092-9.225,2.642-18.775,5.782-25.284,12.479-7.274,7.482-9.878,18.427-11.749,28.1a355.316,355.316,0,0,0-6.448,67.308c0,.233,0,.462,0,.694l-3.71.007C12.718,132.938,12.718,132.7,12.718,132.47Zm11.161-17.213c0-21.031,5.082-40.5,14.791-56.029,14.209-22.722,38.938-36.733,63-35.7a62.107,62.107,0,0,1,32.389,10.927A76.625,76.625,0,0,1,150.18,49.951a105.52,105.52,0,0,1,22.082,78.094l-3.682-.449a101.812,101.812,0,0,0-21.3-75.334A72.961,72.961,0,0,0,131.941,37.5a58.347,58.347,0,0,0-30.43-10.266c-22.751-.98-46.183,12.349-59.7,33.956-11.746,18.783-16.449,43.65-13.247,70.032l-3.683.447A136.3,136.3,0,0,1,23.879,115.257ZM35.95,119.3a132.944,132.944,0,0,1,1.536-22.176C39.543,84.953,43.94,75,50.554,67.534,59.4,57.547,72.343,52.286,81.306,49.2c21.115-7.277,38.5-7.422,51.678-.433,11.737,6.225,20.833,18.873,24.955,34.7,3.647,14.005,3.369,28.581,3.069,42.688a1.447,1.447,0,0,1,.271.825H158.8a1,1,0,0,0,.173.584,1.811,1.811,0,0,1-.451-1.085c.3-14.057.611-28.593-2.981-42.389-3.947-15.157-12.593-27.236-23.721-33.137-12.546-6.655-29.272-6.458-49.713.586-8.7,3-21.242,8.088-29.707,17.639-6.3,7.111-10.5,16.655-12.481,28.367-1.769,10.461-1.571,21.3-1.378,31.779l-2.473.046C36.011,126.041,35.95,122.681,35.95,119.3Zm88.3-13.577a54.678,54.678,0,0,0-5.824-13.811c-2.036-3.181-5.572-7.392-10.848-9.38-6.174-2.329-13.79-1.019-19.877,3.415-5.2,3.788-9.394,9.8-12.133,17.372-2.489,6.882-3.6,14.29-4.675,21.455l-2.445-.367c1.092-7.284,2.222-14.816,4.795-21.928,2.908-8.043,7.4-14.451,13-18.532,6.751-4.918,15.26-6.347,22.205-3.729,5.911,2.228,9.82,6.864,12.059,10.361a56.911,56.911,0,0,1,6.11,14.437,158.918,158.918,0,0,1,4.987,22.556l-2.448.357A156.357,156.357,0,0,0,124.253,105.728Zm-32.735,21.35a18.54,18.54,0,0,1,2.586-8.636,9.086,9.086,0,0,1,8.3-4.331A6.8,6.8,0,0,1,107.132,117a5.58,5.58,0,0,1,.937,4.569,4.982,4.982,0,0,0,.215,2.15,9.717,9.717,0,0,1,.336,2.225h-2.473a7.822,7.822,0,0,0-.272-1.664,6.977,6.977,0,0,1-.207-3.31,3.144,3.144,0,0,0-.57-2.561,4.359,4.359,0,0,0-2.969-1.844c-2.453-.278-4.763,1.427-5.965,3.241s-1.877,4.128-2.184,7.494Zm42.636-26.523c-2.395-9.367-7.238-16.921-13.639-21.267-10.473-7.113-24.743-5.906-37.3-4.217-5.251.707-10.246,1.6-13.664,4.726-3.187,2.916-4.563,7.381-5.6,11.337a140.052,140.052,0,0,0-4.579,33.9l-2.473-.029a142.489,142.489,0,0,1,4.66-34.5c1.212-4.613,2.816-9.324,6.325-12.534,3.945-3.608,9.347-4.591,15-5.353,13.007-1.75,27.822-2.981,39.017,4.623,6.9,4.685,12.1,12.747,14.644,22.7,2.256,8.825,2.338,17.985,2.417,26.842l-2.473.022C136.416,118.095,136.335,109.088,134.154,100.554Zm15.219,25.813c1.628-10.035,3.31-20.408,2.114-30.626-1.31-11.186-6.272-20.622-13.615-25.889-8.96-6.429-20.477-6.832-33.511-6.687-8.261.091-16.8.185-24.974,1.908-9.013,1.9-16.492,5.691-21.627,10.962-6.945,7.126-9.572,16.727-10.553,23.527-1.271,8.817-.666,17.9-.082,26.685l-2.467.164c-.335-5.02-.676-10.136-.676-15.27A83.441,83.441,0,0,1,44.76,99.21c1.033-7.163,3.82-17.3,11.229-24.9,5.48-5.622,13.394-9.653,22.887-11.656,8.409-1.773,17.076-1.869,25.458-1.961,10.4-.116,24.632-.273,34.98,7.151,7.907,5.672,13.239,15.736,14.629,27.611,1.236,10.559-.475,21.108-2.129,31.309ZM83.2,121.956l6.448-8.753a28.976,28.976,0,0,1,4.381-5.063,10.662,10.662,0,0,1,6.585-2.747c3.188-.052,6.4,1.793,8.593,4.937a29.288,29.288,0,0,1,3.636,8.744l-2.374.691a27.026,27.026,0,0,0-3.29-8.02c-1.328-1.906-3.74-3.925-6.525-3.879a8.2,8.2,0,0,0-5.02,2.155,27.151,27.151,0,0,0-3.994,4.649l-6.448,8.751Zm37.459,1.049a34.95,34.95,0,0,0-3.128-19.053c-1.475-3.084-4.078-7.075-8.1-8.579-3.739-1.4-7.824-.374-10.593.731a27.454,27.454,0,0,0-16.806,26.34l-2.469.135q-.041-.734-.041-1.469a30.063,30.063,0,0,1,18.4-27.3c3.174-1.267,7.9-2.425,12.377-.75,3.793,1.419,7.066,4.817,9.463,9.827A37.425,37.425,0,0,1,123.11,123.3Z" transform="translate(1612.215 1285.79)" fill="#fff7eb" opacity="0.289"/></g></svg>