<svg xmlns="http://www.w3.org/2000/svg" xmlns:xlink="http://www.w3.org/1999/xlink" width="171" height="497" viewBox="0 0 171 497"><defs><clipPath id="a"><rect width="171" height="497" transform="translate(0 784)" fill="#fff" stroke="#707070" stroke-width="1"/></clipPath></defs><g transform="translate(0 -784)" clip-path="url(#a)"><g transform="translate(-333.043 783.668)" opacity="0.62"><path d="M409.1,304.779c41.783,25.845,96.386,24.126,138.436-.169,26.476-15.3,47.187-38.763,69.008-59.732a271.608,271.608,0,0,1,82.431-54.631c27.442-11.809,56.46-19.8,81.358-36.863,22.852-15.666,40.355-37.871,48.31-64.582,7.324-24.59,6.3-51.024-.249-75.663-3.45-12.984-8.809-25.151-13.851-37.564-6.114-15.049-11.816-30.275-16.619-45.8a393.5,393.5,0,0,1-10.84-43.8c-4.993-27.069-10.211-54.734-23.145-79.331-13.748-26.148-36.5-45.808-62.224-59.762-25.312-13.729-53.742-22.259-82.312-25.643-25.632-3.037-52.822-1.632-76.677,9-50.09,22.322-62.935,79.446-75.569,127.534-7.362,28.016-16.168,54.084-30.92,79.155-15.981,27.154-35.249,52.145-52.586,78.412-16.543,25.064-31.192,51.6-39.128,80.741-7.062,25.925-8.915,53.576-6.449,80.3C342.7,226.534,364.924,277.459,409.1,304.779Zm-61.873-94.861C332.753,155.481,340.572,97.331,367.271,48c26.936-49.771,68.574-91.7,89.1-144.957,18.272-47.4,20.16-105.139,54.415-145.105C546.469-283.7,608.911-280.95,657-266.869c28.9,8.46,56.721,22.282,78.83,42.982,21.159,19.811,33.066,45.486,40.216,73.21,3.288,12.749,5.709,25.7,8.1,38.641,5.256,28.005,13.835,55.079,24.241,81.573,10.228,26.037,21.159,50.709,22.207,79.144,1.063,28.831-7.6,57.464-26.556,79.514-18.9,21.991-45.343,35.4-72.124,45.3-27.28,10.089-54.471,20.953-78.836,37.086-24.928,16.5-44.916,38.772-66.486,59.2-19.991,18.929-41.526,35.453-68.139,43.667a135.955,135.955,0,0,1-73.792,2.034C394.241,302.384,360.209,258.763,347.223,209.918Z" transform="translate(-337.033 280.16)" fill="#fff"/><path d="M420.069,241.563c35.151,21.743,81.088,20.3,116.464-.143,22.275-12.869,39.7-32.609,58.055-50.25a228.512,228.512,0,0,1,69.347-45.962c23.085-9.934,47.5-16.652,68.445-31.012,19.226-13.178,33.95-31.858,40.643-54.331,6.161-20.687,5.3-42.925-.211-63.653-2.9-10.922-7.411-21.159-11.653-31.6-5.143-12.66-9.941-25.468-13.982-38.528a331.186,331.186,0,0,1-9.118-36.846c-4.2-22.773-8.591-46.047-19.473-66.74-11.565-22-30.7-38.537-52.346-50.275a193.876,193.876,0,0,0-69.247-21.574c-21.565-2.556-44.438-1.372-64.509,7.571C490.345-223,479.539-174.942,468.91-134.486c-6.192,23.568-13.6,45.5-26.012,66.589C429.453-45.051,413.245-24.026,398.659-1.93,384.742,19.156,372.418,41.483,365.741,66c-5.941,21.811-7.5,45.072-5.425,67.553C364.209,175.738,382.908,218.579,420.069,241.563Zm-52.051-79.805c-12.176-45.8-5.6-94.716,16.865-136.22,22.66-41.87,57.689-77.145,74.959-121.949,15.371-39.879,16.959-88.454,45.777-122.076,30.02-35.024,82.551-32.712,123-20.866,24.313,7.118,47.719,18.744,66.32,36.16,17.8,16.666,27.817,38.266,33.831,61.589,2.767,10.725,4.8,21.621,6.813,32.508,4.421,23.561,11.637,46.338,20.392,68.625,8.605,21.905,17.8,42.661,18.683,66.584.894,24.257-6.4,48.343-22.343,66.894-15.9,18.5-38.146,29.778-60.675,38.109-22.951,8.488-45.826,17.629-66.324,31.2-20.971,13.886-37.787,32.618-55.933,49.8-16.818,15.925-34.935,29.827-57.325,36.738a114.384,114.384,0,0,1-62.079,1.712C407.571,239.55,378.942,202.851,368.018,161.758Z" transform="translate(-320.375 302.182)" fill="#fff"/><path d="M434.5,158.435c26.429,16.349,60.97,15.263,87.57-.106,16.748-9.677,29.848-24.52,43.652-37.785a171.8,171.8,0,0,1,52.143-34.557c17.358-7.47,35.714-12.522,51.464-23.319,14.456-9.909,25.528-23.955,30.559-40.852,4.632-15.556,3.984-32.276-.157-47.862-2.183-8.213-5.573-15.91-8.762-23.762-3.868-9.519-7.475-19.151-10.512-28.969a248.451,248.451,0,0,1-6.857-27.705c-3.161-17.123-6.461-34.621-14.642-50.182-8.7-16.539-23.085-28.976-39.359-37.8a145.808,145.808,0,0,0-52.067-16.222c-16.215-1.919-33.413-1.03-48.505,5.7-31.685,14.119-39.809,50.255-47.8,80.673C466.566-106.6,461-90.108,451.664-74.249c-10.11,17.177-22.3,32.986-33.263,49.6C407.935-8.794,398.669,7.995,393.649,26.425a144.3,144.3,0,0,0-4.079,50.794C392.5,108.941,406.556,141.153,434.5,158.435Zm-39.138-60c-9.154-34.436-4.208-71.219,12.681-102.425C425.081-35.477,451.42-62,464.4-95.689c11.557-29.986,12.753-66.509,34.421-91.789,22.571-26.337,62.07-24.6,92.486-15.692,18.281,5.354,35.88,14.095,49.867,27.191,13.384,12.531,20.915,28.772,25.439,46.308,2.08,8.065,3.611,16.258,5.122,24.443a285,285,0,0,0,15.333,51.6c6.469,16.471,13.384,32.078,14.048,50.065.673,18.237-4.81,36.349-16.8,50.3-11.956,13.91-28.682,22.39-45.621,28.655-17.257,6.382-34.457,13.255-49.87,23.46C573.06,109.29,560.415,123.376,546.77,136.3c-12.644,11.975-26.267,22.426-43.1,27.623a85.977,85.977,0,0,1-46.676,1.287C425.1,156.92,403.573,129.328,395.361,98.431Z" transform="translate(-298.468 331.141)" fill="#fff"/><path d="M446.314,90.365c19.29,11.93,44.5,11.136,63.909-.08,12.224-7.062,21.785-17.894,31.858-27.574a125.434,125.434,0,0,1,38.055-25.221c12.669-5.451,26.065-9.139,37.559-17.019C628.245,13.239,636.326,2.988,640-9.342c3.38-11.353,2.906-23.556-.115-34.931-1.594-5.994-4.067-11.611-6.395-17.339-2.823-6.949-5.455-13.978-7.672-21.143a181.474,181.474,0,0,1-5-20.219c-2.307-12.5-4.714-25.268-10.685-36.624-6.348-12.071-16.849-21.147-28.725-27.588a106.432,106.432,0,0,0-38-11.837c-11.834-1.4-24.386-.753-35.4,4.154-23.125,10.3-29.055,36.676-34.888,58.878-3.4,12.932-7.463,24.968-14.275,36.54-7.378,12.536-16.271,24.074-24.276,36.2-7.636,11.571-14.4,23.821-18.063,37.273a105.282,105.282,0,0,0-2.978,37.07C415.66,54.243,425.922,77.752,446.314,90.365ZM417.751,46.572a102.337,102.337,0,0,1,9.255-74.751c12.435-22.977,31.657-42.334,41.134-66.92,8.434-21.884,9.306-48.538,25.12-66.99,16.473-19.219,45.3-17.949,67.5-11.45,13.342,3.907,26.187,10.286,36.394,19.843,9.768,9.147,15.265,21,18.565,33.8,1.519,5.886,2.636,11.865,3.738,17.838A208.043,208.043,0,0,0,630.644-64.4c4.721,12.019,9.768,23.41,10.253,36.537.49,13.31-3.511,26.528-12.261,36.706C619.909,19,607.7,25.185,595.34,29.756c-12.594,4.658-25.146,9.674-36.394,17.121-11.508,7.62-20.735,17.9-30.693,27.33-9.229,8.738-19.172,16.367-31.457,20.158a62.752,62.752,0,0,1-34.065.94C439.457,89.258,423.746,69.12,417.751,46.572Z" transform="translate(-280.529 354.856)" fill="#fff"/></g></g></svg>