<svg xmlns="http://www.w3.org/2000/svg" xmlns:xlink="http://www.w3.org/1999/xlink" width="379.826" height="90.189" viewBox="0 0 379.826 90.189"><defs><clipPath id="a"><rect width="379.827" height="90.189" fill="none"/></clipPath></defs><g clip-path="url(#a)"><path d="M231.59,30.679h.439c-.47,6.375-.113,13.581-.219,20.325h6.849c-.2-2.775,1.592-9.342-1.249-10.168a29.481,29.481,0,0,1,4.558-1.038c-.452,3.271-.085,7.384-.2,10.976,2.2.5,5.322.094,7.886.23-.678-3.214,1.5-9.246-1.465-10.168a29.7,29.7,0,0,1,4.577-1.038c-.484,3.258-.073,7.4-.2,10.976,1.161.5,3.243.094,4.763.23-.618-4.429,1.6-14.314,0-18.265-.2-.491-.355-1.086-1.254-1.024a31.92,31.92,0,0,1,3.758-1.035V50.774c6.88.5,14.724.094,21.971.23a13.087,13.087,0,0,1-1.027-4.575c-3.484-3.53-16.178,1.539-17.434-3.717-1.54-6.494,9.119-6.955,13.078-3.951-.45.806-.472,2.022-1.246,2.485.041-5.29-10.044-5.113-9.133.627.8,5.017,13.792-.032,16.811,3.319,1.224,1.352.556,3.424,1.035,4.984.347,1.1,1.121,1.143,1.036,2.074-15.207-.367-37.333-.22-54.77-.22-6.348,0-12.839.631-18.265,0-2.146-.241-4.606-1.277-4.774-3.53-.347-4.838,8.136-7.255,13.915-6.219.243.68-.218,2.219-.218,3.321-2.011-5.343-12.473-2.588-10.38,3.118,1.646,4.484,12.8,1.268,18.476,2.283V41.873c0-3.174.689-7.131,0-9.134-.2-.574-.368-1.117-1.447-1.024,1.181-.543,2.975-.492,4.126-1.035" transform="translate(-100.902 -14.947)" fill="#b53215" fill-rule="evenodd"/><path d="M701.055,30.679c1.1,5.686-1.359,17.792,1.657,21.571a18.924,18.924,0,0,0-4.987,0c-.326-.441,1.08-1.036,1.236-2.292.443-3.311.676-14.851,0-17.01-.181-.616-.421-1.34-1.434-1.235,1.007-.524,2.491-.567,3.528-1.035" transform="translate(-339.836 -14.947)" fill="#b53215" fill-rule="evenodd"/><path d="M472.446,31.447c.482.725,1.215,1.145.839,2.274-1.166,3.614-6.7-2.72-.839-2.274" transform="translate(-228.886 -15.31)" fill="#b53215" fill-rule="evenodd"/><path d="M725.433,38.549c1.24,2.724-2.7,3.623-3.307,1.667-.585-1.833,1.75-3.131,3.307-1.667" transform="translate(-351.776 -18.473)" fill="#b53215" fill-rule="evenodd"/><path d="M264.979,38.965c1.259,2.722-2.7,3.632-3.33,1.644-.577-1.844,1.779-3.131,3.33-1.644" transform="translate(-127.432 -18.667)" fill="#b53215" fill-rule="evenodd"/><path d="M407.758,40.883a2.358,2.358,0,0,1-3.123.419c-1.771-3.193,4.052-4.2,3.123-.419" transform="translate(-196.974 -18.733)" fill="#b53215" fill-rule="evenodd"/><path d="M415.757,38.3c2.972,2.515-2.4,4.934-2.7,1.867-.107-1.257.775-2.157,2.7-1.867" transform="translate(-201.237 -18.633)" fill="#b53215" fill-rule="evenodd"/><path d="M584.14,40.878a2.525,2.525,0,0,1-2.912.629c-2.436-3,3.815-4.776,2.912-.629" transform="translate(-282.899 -18.728)" fill="#b53215" fill-rule="evenodd"/><path d="M592.745,38.974c1.219,2.177-1.809,3.57-3.11,2.064-1.13-2.178,1.792-3.592,3.11-2.064" transform="translate(-287.147 -18.676)" fill="#b53215" fill-rule="evenodd"/><path d="M230.253,41.556c-2.619.837-.409,4.083,2.072,2.711-.3,1.268-2.848.326-4.125.618.012-.774.283-.52.818-.409a2.444,2.444,0,0,1-.629-2.082,2.18,2.18,0,0,1,1.865-.837" transform="translate(-111.179 -20.243)" fill="#b53215" fill-rule="evenodd"/><path d="M233.427,41.775c.347-.588,1.769.083,1.038.616-.326-.229-.431-.67-1.038-.616" transform="translate(-113.726 -20.242)" fill="#b53215" fill-rule="evenodd"/><path d="M558.212,48.461c.514,2.453.053,7.521.209,11,2.214.482,5.331.071,7.874.2-.574-3.289,1.373-9.11-1.442-10.16a36.988,36.988,0,0,1,4.346-1.038c-.3,3.427-.191,7.28-.212,11,6.683,3.1,7.962-6.818,4.569-9.342,1.091-.241,4,.333,5.383-.209-2.408,1.548-1.927,8.837.649,9.749,5.38,1.359,4.976-7.95,2.469-9.54,1.041-.2,4.024.3,5.4-.209-2.479,1.571-1.948,9.122.631,9.749,3.938.976,4.952-4.681,3.74-7.877-.316-.793-.985-1.192-.829-1.872a8.966,8.966,0,0,0,4.346,0c.315.742-.786,1.024-1.045,2.072-.684,2.775.6,6.641-1.855,8.305-2.324,1.581-6.326.47-6.651-2.693-.447,4.158-8.115,4.42-8.5,0-1.573,4.7-9.46,3.1-17.22,3.1-5.1,0-14.664,1.215-16.179-1.234-1.636-2.639,1.218-6.358-3.74-5.6.829,1.383-.022,6.242,2.274,6.839-6.213-1.372-21.942,2.683-25.091-2.072-3.79-5.718,4.063-12.336,10.576-9.332a25.767,25.767,0,0,0-.411,4.149c-.843-5.469-7.693-4.315-8.287.416-1.126,8.662,12.375,5.07,19.685,5.8-1.247-1.343-.567-6.546-3.52-6.011.191-1.362,2.348-.84,3.74-.84,2.075,0,4.42-.283,5.593.42,2.221,1.319.669,4.461,2.292,6.232,2.38.46,5.575.092,8.309.2-.2-2.767,1.579-9.333-1.261-10.16,1.2-.554,2.9-.576,4.158-1.038" transform="translate(-251.566 -23.61)" fill="#b53215" fill-rule="evenodd"/><path d="M714.09,59.292c2.954.369,9.039,1.507,10.169-1.257,1.463-3.53-1.392-9.057-3.927-9.109-2.879-.085-3.436,3.664-2.076,5.175-1.516-.128-2.408.365-3.957.209,1.017-.377,1.687-2.2,1.038-3.521,4.48-5.171,12.418-.584,11.833,5.6-.429,4.651-6.138,4.692-12.244,4.346-.4-.365-.5-1.027-.836-1.445" transform="translate(-347.906 -23.653)" fill="#b53215" fill-rule="evenodd"/><path d="M283.992,76.158c1.234,2.669-2.681,3.644-3.31,1.666-.565-1.781,1.686-3.183,3.31-1.666" transform="translate(-136.705 -36.79)" fill="#b53215" fill-rule="evenodd"/><path d="M291.677,75.766c2.378,1.707-2.031,4.818-2.9,2.066-.428-1.32.46-2.915,2.9-2.066" transform="translate(-140.642 -36.797)" fill="#b53215" fill-rule="evenodd"/><path d="M439.964,78.373c-.7-1.688.038-3.448,2.27-2.9,2.072,1.317-.124,4.608-2.27,2.9" transform="translate(-214.227 -36.72)" fill="#b53215" fill-rule="evenodd"/><path d="M450.224,75.5c1.236.889.952,2.943-.2,3.309-2.649.87-3.864-4,.2-3.309" transform="translate(-218.068 -36.752)" fill="#b53215" fill-rule="evenodd"/><path d="M541.74,76.158c1.2,2.669-2.7,3.644-3.329,1.666-.577-1.781,1.7-3.183,3.329-1.666" transform="translate(-262.27 -36.79)" fill="#b53215" fill-rule="evenodd"/><path d="M549.486,75.687a1.861,1.861,0,0,1-1.884,3.09c-2.009-.631-1.013-4.544,1.884-3.09" transform="translate(-266.28 -36.718)" fill="#b53215" fill-rule="evenodd"/><path d="M604.38,77.995c-.3-1.969.546-2.8,2.509-2.506,2.426,1.592-.9,4.923-2.509,2.506" transform="translate(-294.425 -36.751)" fill="#b53215" fill-rule="evenodd"/><path d="M614.89,75.5c1.236.889.964,2.943-.188,3.309-2.671.87-3.864-4,.188-3.309" transform="translate(-298.295 -36.752)" fill="#b53215" fill-rule="evenodd"/><path d="M439.519,42.109c-3.157,2.878,1.455,13.372-2.7,15.154-2.2.9-7.948.188-11.823.188-4.179,0-8.433-.041-11.837,0-7.3.085-15.981.733-22.788,0-2.451-.262-4.742-1.266-4.8-3.726-.092-4.746,8.034-7.037,13.9-6.023.156,1.277-.273,1.938-.213,3.112-2.352-4.642-11.716-2.819-10.587,2.911.953,4.721,13.137,1.915,18.676,2.7-.665-3.214,1.516-9.246-1.445-10.168a35.016,35.016,0,0,1,4.378-1.038V56.423h7.87c-.585-3.3,1.367-9.119-1.452-10.168a35.907,35.907,0,0,1,4.356-1.038c-.326,3.489-.2,7.406-.219,11.206,4.583-.124,9.677.254,13.916-.207,1.059-.66.818-2.639.818-4.367-.974,1.8-4.364,2.679-6.638,1.875-5.929-2.127-3.79-13.961,3.956-11.615,1.08.324,1.612,1.13,2.472,2.072.6-.45.534-1.539,1.243-1.874.914-.136,2.338.284,2.916-.2m-9.751,10.167c5.206,3.836,7.9-6.115,4.356-8.522a3.907,3.907,0,0,0-2.514-.409c-3.634.45-4.626,6.879-1.842,8.931" transform="translate(-187.851 -20.366)" fill="#b53215" fill-rule="evenodd"/><path d="M210.744,106.785V127.2h-2.428V106.785h-6.381v-2.2h15.113v2.2Z" transform="translate(-98.383 -50.954)" fill="#4d3c33"/><path d="M252.675,127.2V116.514H242.046V127.2h-2.431V104.586h2.431v9.708h10.629v-9.708h2.43V127.2Z" transform="translate(-116.741 -50.954)" fill="#4d3c33"/><path d="M277.316,127.2V104.586h12.157v2.2h-9.738v7.61h8.419v2.118h-8.419v8.5h10.126V127.2Z" transform="translate(-135.109 -50.954)" fill="#4d3c33"/><path d="M336.376,108.173a12.309,12.309,0,0,0-1.663-1.08,17.439,17.439,0,0,0-1.666-.744,4.987,4.987,0,0,0-1.781-.347,6.867,6.867,0,0,0-3.4.808,7.215,7.215,0,0,0-2.326,2.118,9.353,9.353,0,0,0-1.331,3.039,14.069,14.069,0,0,0-.45,3.513,15.894,15.894,0,0,0,.422,3.57,9.28,9.28,0,0,0,1.317,3.081,6.817,6.817,0,0,0,2.315,2.157,6.707,6.707,0,0,0,3.434.818,6.214,6.214,0,0,0,1.769-.251,13.326,13.326,0,0,0,1.7-.556c.5-.2,1.077-.467,1.727-.793l.932,1.672a14.655,14.655,0,0,1-1.969,1.02,18.045,18.045,0,0,1-1.957.712,7.6,7.6,0,0,1-2.18.312,9.731,9.731,0,0,1-4.323-.91,9.234,9.234,0,0,1-3.154-2.494,10.753,10.753,0,0,1-1.916-3.7,15.192,15.192,0,0,1-.65-4.494,15.606,15.606,0,0,1,.65-4.524,11.581,11.581,0,0,1,1.884-3.747,9.281,9.281,0,0,1,3.142-2.529,9.835,9.835,0,0,1,4.367-.932,5.674,5.674,0,0,1,2.2.464,13.555,13.555,0,0,1,2.106,1.006,22.784,22.784,0,0,1,2.169,1.474Z" transform="translate(-156.5 -50.614)" fill="#4d3c33"/><rect width="2.472" height="22.617" transform="translate(185.113 53.632)" fill="#4d3c33"/><path d="M382.843,106.785V127.2h-2.43V106.785h-6.377v-2.2h15.1v2.2Z" transform="translate(-182.231 -50.954)" fill="#4d3c33"/><path d="M419.713,117.666V127.2h-2.444v-9.6l-7.757-13.019h2.859l6.272,10.753L425,104.586h2.383Z" transform="translate(-199.515 -50.954)" fill="#4d3c33"/><path d="M469.253,127.2h-2.416l-7.823-22.618h2.554l6.577,19.55,6.733-19.55h2.246Z" transform="translate(-223.632 -50.954)" fill="#4d3c33"/><path d="M501.553,127.2V104.586H513.73v2.2h-9.747v7.61h8.43v2.118h-8.43v8.5h10.137V127.2Z" transform="translate(-244.357 -50.954)" fill="#4d3c33"/><path d="M539.8,106.785V127.2h-2.43V106.785H531v-2.2h15.11v2.2Z" transform="translate(-258.706 -50.954)" fill="#4d3c33"/><path d="M592.915,108.173a13.307,13.307,0,0,0-1.686-1.08,14.284,14.284,0,0,0-1.658-.744A4.961,4.961,0,0,0,587.8,106a6.86,6.86,0,0,0-3.4.808,7.3,7.3,0,0,0-2.337,2.118,9.532,9.532,0,0,0-1.338,3.039,14.372,14.372,0,0,0-.419,3.513,15.271,15.271,0,0,0,.4,3.57,9.659,9.659,0,0,0,1.3,3.081,7.063,7.063,0,0,0,2.338,2.157,6.746,6.746,0,0,0,3.442.818,6.344,6.344,0,0,0,1.771-.251,13.148,13.148,0,0,0,1.679-.556c.51-.2,1.1-.467,1.746-.793l.91,1.672a14.568,14.568,0,0,1-1.956,1.02,17.444,17.444,0,0,1-1.961.712,7.538,7.538,0,0,1-2.168.312,9.872,9.872,0,0,1-4.341-.91,9.106,9.106,0,0,1-3.146-2.494,10.986,10.986,0,0,1-1.905-3.7,14.567,14.567,0,0,1-.659-4.494,14.957,14.957,0,0,1,.659-4.524,11.4,11.4,0,0,1,1.9-3.747,9.1,9.1,0,0,1,3.117-2.529,9.893,9.893,0,0,1,4.377-.932,5.654,5.654,0,0,1,2.189.464,14.087,14.087,0,0,1,2.118,1.006,25.765,25.765,0,0,1,2.157,1.474Z" transform="translate(-281.48 -50.614)" fill="#4d3c33"/><path d="M617.47,127.2V104.586h2.419v20.429h9.468V127.2Z" transform="translate(-300.832 -50.954)" fill="#4d3c33"/><rect width="2.448" height="22.617" transform="translate(332.179 53.632)" fill="#4d3c33"/><path d="M672.925,127.2,661.853,107.5V127.2h-2.188V104.586h3.1l10.732,19.26v-19.26h2.21V127.2Z" transform="translate(-321.39 -50.954)" fill="#4d3c33"/><rect width="2.458" height="22.617" transform="translate(357.755 53.632)" fill="#4d3c33"/><path d="M723.647,108.173a13.052,13.052,0,0,0-1.686-1.08,17.008,17.008,0,0,0-1.644-.744,5.014,5.014,0,0,0-1.771-.347,6.766,6.766,0,0,0-3.4.808,6.87,6.87,0,0,0-2.327,2.118,9.153,9.153,0,0,0-1.364,3.039,15.164,15.164,0,0,0-.428,3.513,16.768,16.768,0,0,0,.407,3.57,9.551,9.551,0,0,0,1.317,3.081,7.039,7.039,0,0,0,2.316,2.157,6.777,6.777,0,0,0,3.436.818,6.133,6.133,0,0,0,1.771-.251,13.1,13.1,0,0,0,1.686-.556c.513-.2,1.1-.467,1.749-.793l.921,1.672a14.765,14.765,0,0,1-1.962,1.02,17.311,17.311,0,0,1-1.962.712,7.548,7.548,0,0,1-2.161.312,9.725,9.725,0,0,1-4.335-.91,9.075,9.075,0,0,1-3.167-2.494,11,11,0,0,1-1.9-3.7,14.8,14.8,0,0,1-.648-4.494,15.2,15.2,0,0,1,.648-4.524,11.594,11.594,0,0,1,1.885-3.747,9.249,9.249,0,0,1,3.141-2.529,9.862,9.862,0,0,1,4.378-.932,5.734,5.734,0,0,1,2.189.464,14.392,14.392,0,0,1,2.1,1.006c.616.362,1.342.868,2.167,1.474Z" transform="translate(-345.18 -50.614)" fill="#4d3c33"/><path d="M93.512,23.369V15.253a2.085,2.085,0,0,0,2.129-.964c.668-.995.889-1.792,2.293-1.937,1.255-.149,1.317.011,3.528.785,4.283,1.509,17.468,1.057,17.468,1.057s-.648,2.638-2.639,2.828c-1.968.179-2.21-.083-2.21-.083a3.341,3.341,0,0,1-1.057,2.021c-1,.921-3.016.354-3.016.354s-.388,2.3-2.293,2.817c-1.886.546-4.128-1.055-4.128-1.055a6.948,6.948,0,0,1-2.47,2.377c-3.363,1.456-7.6-.083-7.6-.083" transform="translate(-45.559 -5.994)" fill="#252321" fill-rule="evenodd"/><path d="M61.047,23.492V15.355a2.107,2.107,0,0,1-2.118-.972c-.678-1.006-.887-1.8-2.3-1.96-1.279-.124-1.33.022-3.54.808-4.3,1.507-17.531,1.055-17.531,1.055s.65,2.649,2.66,2.817c1.969.2,2.21-.071,2.21-.071a3.3,3.3,0,0,0,1.058,2.021c.995.931,3.015.375,3.015.375s.4,2.3,2.3,2.817c1.909.535,4.16-1.057,4.16-1.057a6.908,6.908,0,0,0,2.47,2.388c3.374,1.466,7.615-.084,7.615-.084" transform="translate(-17.323 -6.033)" fill="#252321" fill-rule="evenodd"/><path d="M85.231,26.632,85.057,6.619A3.345,3.345,0,0,1,83.2,3.352,3.129,3.129,0,0,1,86.551,0,3.477,3.477,0,0,1,89.82,3.352a3.614,3.614,0,0,1-2.031,3.267l-.345,20.014Z" transform="translate(-40.536 0)" fill="#252321" fill-rule="evenodd"/><path d="M96.945,46.12s4.314-.439,5.456-1.139a3.048,3.048,0,0,0,1.781-2.651c-.053-1.036-.545-1.353-1.07-1.424-.512-.045-1.707.816-2.815,1.328s-2.5.639-3.089.179a1.705,1.705,0,0,1-.085-2.294,3.415,3.415,0,0,1,3.246-1.579c1.927-.034,4.378.354,5.561,1.673a3.436,3.436,0,0,1,.974,2.9c0,.544-.2,1.946-2.293,3.265s-3.873,2.295-3.873,2.295a5.169,5.169,0,0,0-1.4-1.4,25.913,25.913,0,0,0-2.389-1.153" transform="translate(-47.127 -18.776)" fill="#252321" fill-rule="evenodd"/><path d="M98.861,41.56s.117-.692,1.048-.619c.933.053.808.619.808.619a.834.834,0,0,1-.976.608c-.836-.052-.88-.608-.88-.608" transform="translate(-48.165 -19.944)" fill="#fff" fill-rule="evenodd"/><path d="M84.769,50.268a9.754,9.754,0,0,0-7.845-4.148c-5.173.053-8.639-.774-9.236-1.139a3.05,3.05,0,0,1-1.8-2.651c.052-1.035.554-1.353,1.079-1.424.534-.045,1.739.816,2.881,1.328s2.555.639,3.151.179a1.679,1.679,0,0,0,.1-2.294,3.532,3.532,0,0,0-3.342-1.579c-1.948-.034-4.452.354-5.666,1.673a3.435,3.435,0,0,0-1,2.9c0,.544.284,1.822,2.348,3.265a13.284,13.284,0,0,0,8.67,2.912c2.377.115,4.02.138,5.561.786,1.874.827,1.2,2.743,1.5,2.566.814-.484,3.6-2.378,3.6-2.378" transform="translate(-30.73 -18.776)" fill="#252321" fill-rule="evenodd"/><path d="M79.392,41.56s-.127-.692-1.089-.619c-.942.053-.807.619-.807.619a.855.855,0,0,0,.995.608c.861-.052.9-.608.9-.608" transform="translate(-37.753 -19.944)" fill="#fff" fill-rule="evenodd"/><path d="M89.379,61.588a5.337,5.337,0,0,0-1.33-.181c-.763-.009-1.047,0-1.047,0v4.41l1.225.712,1.152.514Z" transform="translate(-42.388 -29.916)" fill="#252321" fill-rule="evenodd"/><path d="M79.023,60.215s-1.584-.053-2.651-.168a3.442,3.442,0,0,1-1.581-.535,4.288,4.288,0,0,0-1.415,3.352c.232,1.916.819,3.214,2.295,4.062s1.937.787,1.937.787L80.7,66.121s-2.671-1.206-2.913-2.723-.2-2.168,1.238-3.182" transform="translate(-35.738 -28.994)" fill="#252321" fill-rule="evenodd"/><path d="M77.525,77.567a8.1,8.1,0,0,1,2.827-2.115A11.938,11.938,0,0,1,83.263,74.3l1.58,2.031a13.887,13.887,0,0,0-2.91,1.414,7.273,7.273,0,0,0-1.844,2.031Z" transform="translate(-37.77 -36.199)" fill="#252321" fill-rule="evenodd"/><path d="M87.676,81.7a1.719,1.719,0,0,1,.983-.546.935.935,0,0,1,.784.284v4.231a2.261,2.261,0,0,0-1.066-.262,5.46,5.46,0,0,0-.619,0Z" transform="translate(-42.716 -39.532)" fill="#252321" fill-rule="evenodd"/><path d="M92.269,83.839a7.231,7.231,0,0,1,1.937.961c.846.661.88.806.88.806S98.143,83.9,98,81.8c-.149-2.076-2.3-4.234-2.3-4.234L91.474,78.9s2.752,1.079,2.91,2.188c.136,1.123-.678,2.129-2.114,2.747" transform="translate(-44.566 -37.789)" fill="#252321" fill-rule="evenodd"/><path d="M86.111,93.643s2,.929,2.032,2.28-.491,1.792-2.471,2.568c-1.968.754-4.052.878-4.408,1.484a2.7,2.7,0,0,0,1.057,3.364c1.56,1.173,6.8,3.007,6.8,3.007s-4.5-2.631-5.12-3.445c-.618-.84-.735-1.6.354-2.118,1.09-.546,5.646-1.749,6.347-3.018a3.5,3.5,0,0,0,.273-3.242c-.388-.974-4.062-3.006-4.062-3.006Z" transform="translate(-39.478 -44.587)" fill="#252321" fill-rule="evenodd"/><path d="M91.549,108.382,94.2,107.5s1.237.861.972,1.856a3.421,3.421,0,0,1-1.757,2.118,5.958,5.958,0,0,1-1.236.709l-.889-.627s1.412-.733,1.412-1.321-1.153-1.852-1.153-1.852" transform="translate(-44.477 -52.374)" fill="#252321" fill-rule="evenodd"/><path d="M89.348,100.024V96.663a2.44,2.44,0,0,0-1.317.723,5.138,5.138,0,0,0-.356,2.1,1.785,1.785,0,0,0,.974.535c.648.106.7,0,.7,0" transform="translate(-42.715 -47.094)" fill="#252321" fill-rule="evenodd"/><path d="M86.514,103.493l-1.4-.786-.263,1.13-.094.45a9.763,9.763,0,0,1,1.153-.531c.554-.2.608-.171.608-.171Z" transform="translate(-41.292 -50.039)" fill="#252321" fill-rule="evenodd"/><path d="M88.808,109.918l.712.344v1.508l-.616.44-.975-.8-.094-.616Z" transform="translate(-42.793 -53.552)" fill="#252321" fill-rule="evenodd"/><path d="M88.018,120.155a1.934,1.934,0,0,1,.88-.428,3.332,3.332,0,0,1,.617,0v4.93l-1.5-.082Z" transform="translate(-42.882 -58.325)" fill="#252321" fill-rule="evenodd"/><path d="M82.343,119.6l3.09-1.24-.795-.517Z" transform="translate(-40.118 -57.415)" fill="#252321" fill-rule="evenodd"/><path d="M51.267,100.274c.608-.011.837.053,1.059.439a2.706,2.706,0,0,1,.177,1.317c-.262-.248-.524-.666-.889-.793-2.21.021-.921,1.445-4.316.188v-.1c1.56.014,2.409-.564,3.969-1.056" transform="translate(-23.044 -48.853)" fill="#4b3b32" fill-rule="evenodd"/><path d="M112.454,48.5a23.391,23.391,0,0,1,7.939.87c7.446,2.619,14.61,10.19,12.788,22.506a30.01,30.01,0,0,1-2.211,7.234c-5.319,12.684-16.786,20.235-27.95,27.608-2.713,1.779-5.626,3.256-8.461,4.931a33.927,33.927,0,0,1-3.27,1.771c-4.322-3.645-.072-5.667,3.08-7.594,3.885-2.479,7.76-4.994,11.635-7.495a33.423,33.423,0,0,0,6.449-5.292,2.14,2.14,0,0,1-.177.177c-2.618,1.771-5.152,3.35-7.771,5.114-4.261,2.56-8.608,5.3-12.871,7.841a1.356,1.356,0,0,1-.26-.17,5.75,5.75,0,0,1-.452-3.875c1.214-3.393,7.487-5.943,10.513-8.125,1.123-.879,2.285-1.757,3.427-2.639a7.683,7.683,0,0,0,2.565-2.567c-3.53,2.387-6.838,4.831-10.577,7.069a26.917,26.917,0,0,1-3.635,2.022c-1.643-4.169,5-8.766,6.705-9.878,3.026-1.955,15.665-11.149,11.475-22.313-3.141-8.368-11.445-3.521-16.493-1.581-4.074,1.548-7.016.493-8.555-2.557.022-.082.05-.177.082-.271,1.236-.914,2.474-1.834,3.708-2.734a113.271,113.271,0,0,1,9.783-6.085,36.3,36.3,0,0,1,7.685-3.1c1.624-.273,3.227-.576,4.847-.87" transform="translate(-42.069 -23.623)" fill="#4b3b32" fill-rule="evenodd"/><path d="M17.28,48.485c1.874,0,2.449.965,3.172,1.4a22.389,22.389,0,0,1,4.849.365c3.793.912,8.966,3.468,10.682,6.347.955,1.6-.239,4.429,1.144,5.813,2.68,2.21,5.446,4.5,8.115,6.715.419.019.733-.022,1.153,0a3.809,3.809,0,0,1,2.114,1.4A11.676,11.676,0,0,1,47.715,73c-.671.765-1,1.184-1.679,1.95-2.679,4.385-4.638,8.415-11.906,8.115.085-.1.179-.177.261-.263a5.009,5.009,0,0,0,1.238-3.1c.028-.765,1.076-.9.606-2.117-.335-.667-.93-.323-1.486-.522a3.94,3.94,0,0,1-1.413-1.144c-2.37-2.764-3.676-5.213-7.583-6.449-1.842-.575-3.477-.209-4.943-.262a33.432,33.432,0,0,1-.524-5.016C9.111,65.5,11.31,80.416,1.4,82.97c-.4-2.458-.987-4.979-1.4-7.675V70.718c.282-2.44.042-4.545.524-6.607A20.671,20.671,0,0,1,10.575,50.684a18.992,18.992,0,0,1,4.589-1.844c.712-.126,1.415-.23,2.116-.356" transform="translate(0 -23.622)" fill="#b73217" fill-rule="evenodd"/><path d="M43.289,123.588c4.45-.159,7.76,1.141,8.378,4.849-2.522-.411-3.632,1.183-3.875,3.35,10.933-.031,13.626,7.857,13.312,18.608-6.61-2.075-13.227-4.115-18.694-7.331-1.592-.91-3.981-2.051-5.113-3.42-3.643-4.421-3.7-8.745.432-12.893a11.435,11.435,0,0,1,5.559-3.163" transform="translate(-16.856 -60.206)" fill="#bf740e" fill-rule="evenodd"/><path d="M54.474,129.391c-.262.1-.228.3-.356.45.043.627.168.669.618.878a.59.59,0,0,0,.534-.272.781.781,0,0,0,0-.879c-.085-.032-.178-.138-.273-.177a1.091,1.091,0,0,0-.524,0" transform="translate(-26.366 -63.023)" fill="#fff" fill-rule="evenodd"/><path d="M54.222,71.877c-1.876.609-3.623,1.845-5.74,1.332v.085c.064.188.115.406.178.616.734.273,1.55.987,2.65.785,1.622-.712,3.09-2.031,4.67,0a1.621,1.621,0,0,0,.179-.081,7.994,7.994,0,0,0,.179-1.5,2.378,2.378,0,0,0-2.116-1.238" transform="translate(-23.621 -35.014)" fill="#fff" fill-rule="evenodd"/></g></svg>