<svg xmlns="http://www.w3.org/2000/svg" xmlns:xlink="http://www.w3.org/1999/xlink" width="610.863" height="575.078" viewBox="0 0 610.863 575.078"><defs><pattern id="a" preserveAspectRatio="none" width="100%" height="100%" viewBox="0 0 0 0"><image/></pattern></defs><g transform="translate(2 86.221)"><g transform="translate(-2 -86.221)"><g transform="translate(0 0)"><path d="M1821.517,717.667h11.5a40.683,40.683,0,0,0,4.345.737c4.665.3,9.337.461,14.007.724a276.664,276.664,0,0,1,49.028,7.3c68.064,16.331,125.282,50.5,169.539,105.053,38.613,47.593,59.7,102.119,62,163.623a43.371,43.371,0,0,0,.761,4.987v9.585a30.971,30.971,0,0,0-.687,3.714c-.3,4.555-.192,9.164-.818,13.674-1.842,13.325-3.04,26.832-6.134,39.88-15.133,63.9-49.209,116.075-100.306,156.893-54.318,43.389-116.688,65.625-186.131,68.133a41.873,41.873,0,0,0-4.966.772h-12.78a36.33,36.33,0,0,0-4.965-.769,282.465,282.465,0,0,1-55.868-6.669c-70.389-15.53-129.539-50-175.234-106.128-38.7-47.534-59.811-102.058-62.2-163.556a48.891,48.891,0,0,0-.775-5.3v-10.224a29.849,29.849,0,0,0,.714-3.711c.306-4.452.194-8.954.81-13.357,1.845-13.219,3.08-26.605,6.121-39.558,14.121-60.162,45.394-110.173,92.194-150.167,55.812-47.7,120.924-72.1,194.225-74.859A55.416,55.416,0,0,0,1821.517,717.667Z" transform="translate(-1521.837 -717.667)" fill="#fff"/></g><rect transform="translate(0.001 0.001)" fill="url(#a)"/></g></g></svg>