<svg xmlns="http://www.w3.org/2000/svg" xmlns:xlink="http://www.w3.org/1999/xlink" width="334" height="170" viewBox="0 0 334 170"><defs><clipPath id="a"><rect width="334" height="170" transform="translate(1514 2252)" fill="#fff" stroke="#707070" stroke-width="1"/></clipPath></defs><g transform="translate(-1514 -2252)" clip-path="url(#a)"><g transform="translate(1533.896 1897.075)" opacity="0.62"><path d="M393.051,174.541c32.48,20.091,74.926,18.754,107.613-.131,20.581-11.892,36.681-30.133,53.644-46.433A211.133,211.133,0,0,1,618.384,85.51c21.332-9.18,43.889-15.388,63.244-28.655,17.764-12.178,31.37-29.439,37.553-50.2,5.693-19.115,4.9-39.664-.194-58.816-2.682-10.093-6.848-19.551-10.767-29.2-4.753-11.7-9.185-23.534-12.919-35.6a305.9,305.9,0,0,1-8.426-34.046c-3.881-21.042-7.937-42.547-17.991-61.668C658.2-233,640.514-248.287,620.515-259.134a179.155,179.155,0,0,0-63.985-19.933c-19.925-2.361-41.061-1.268-59.605,7-38.937,17.352-48.922,61.757-58.743,99.139-5.723,21.778-12.568,42.042-24.036,61.531-12.423,21.108-27.4,40.535-40.878,60.954-12.859,19.483-24.247,40.113-30.416,62.764a177.242,177.242,0,0,0-5.013,62.42C341.436,113.718,358.714,153.3,393.051,174.541Zm-48.1-73.74c-11.248-42.317-5.17-87.519,15.585-125.868,20.939-38.689,53.306-71.283,69.262-112.682,14.2-36.848,15.671-81.73,42.3-112.8,27.738-32.363,76.277-30.227,113.655-19.282,22.465,6.577,44.092,17.321,61.279,33.412,16.448,15.4,25.7,35.358,31.262,56.91,2.556,9.91,4.438,19.978,6.293,30.038,4.086,21.77,10.755,42.816,18.844,63.41,7.951,20.24,16.448,39.418,17.262,61.523.827,22.412-5.91,44.67-20.644,61.81C685.358,54.369,664.8,64.789,643.986,72.489c-21.206,7.842-42.343,16.288-61.283,28.829-19.378,12.83-34.915,30.139-51.683,46.018-15.54,14.715-32.281,27.559-52.968,33.945a105.685,105.685,0,0,1-57.362,1.581C381.5,172.679,355.049,138.771,344.954,100.8Z" transform="translate(-337.033 280.16)" fill="#fff"/><path d="M406.57,132c27.325,16.9,63.034,15.778,90.533-.111,17.315-10,30.858-25.349,45.129-39.062A177.635,177.635,0,0,1,596.139,57.1c17.945-7.722,36.923-12.945,53.206-24.107C664.29,22.745,675.736,8.224,680.939-9.246c4.789-16.081,4.117-33.367-.164-49.481-2.256-8.49-5.761-16.448-9.058-24.565-4-9.841-7.727-19.8-10.869-29.95a257.474,257.474,0,0,1-7.088-28.642c-3.266-17.7-6.678-35.795-15.137-51.881-8.99-17.1-23.866-29.956-40.691-39.081a150.709,150.709,0,0,0-53.829-16.77c-16.764-1.987-34.544-1.067-50.146,5.886-32.758,14.6-41.157,51.956-49.42,83.4-4.814,18.321-10.573,35.369-20.221,51.763-10.451,17.76-23.05,34.1-34.389,51.28-10.818,16.391-20.4,33.747-25.589,52.8a149.122,149.122,0,0,0-4.217,52.512C363.148,80.828,377.683,114.13,406.57,132ZM366.109,69.961c-9.465-35.6-4.35-73.627,13.11-105.89,17.615-32.547,44.844-59.968,58.269-94.8,11.949-31,13.183-68.759,35.584-94.9,23.336-27.226,64.171-25.429,95.617-16.22,18.9,5.533,37.094,14.571,51.554,28.109,13.836,12.956,21.623,29.746,26.3,47.876,2.151,8.337,3.734,16.807,5.3,25.27a294.626,294.626,0,0,0,15.852,53.346c6.689,17.028,13.838,33.163,14.524,51.759.7,18.856-4.974,37.579-17.368,52C652.483,30.9,635.192,39.666,617.679,46.142c-17.841,6.6-35.622,13.7-51.557,24.254-16.3,10.794-29.374,25.356-43.48,38.714-13.074,12.38-27.157,23.186-44.561,28.558A88.916,88.916,0,0,1,429.824,139C396.855,130.432,374.6,101.9,366.109,69.961Z" transform="translate(-329.073 290.683)" fill="#fff"/><path d="M424.349,76.051c20.545,12.709,47.395,11.865,68.072-.083,13.019-7.523,23.2-19.061,33.932-29.372a133.547,133.547,0,0,1,40.534-26.862C580.381,13.927,594.65,10,606.893,1.607c11.237-7.7,19.844-18.622,23.755-31.756,3.6-12.092,3.1-25.09-.122-37.205-1.7-6.384-4.333-12.367-6.811-18.471-3.007-7.4-5.811-14.887-8.172-22.519a193.122,193.122,0,0,1-5.33-21.537c-2.457-13.311-5.022-26.913-11.382-39.009-6.76-12.857-17.945-22.525-30.6-29.386a113.344,113.344,0,0,0-40.474-12.61c-12.6-1.492-25.973-.8-37.705,4.427-24.63,10.976-30.946,39.066-37.159,62.711-3.62,13.775-7.95,26.594-15.2,38.922-7.859,13.353-17.331,25.641-25.857,38.558-8.135,12.324-15.338,25.374-19.241,39.7a112.167,112.167,0,0,0-3.171,39.485C391.7,37.578,402.628,62.617,424.349,76.051ZM393.925,29.407a109,109,0,0,1,9.858-79.62C417.029-74.686,437.5-95.3,447.6-121.491c8.984-23.309,9.913-51.7,26.757-71.352,17.546-20.473,48.25-19.12,71.894-12.2,14.21,4.162,27.891,10.957,38.764,21.137,10.4,9.741,16.258,22.366,19.775,36,1.617,6.269,2.807,12.638,3.982,19a221.544,221.544,0,0,0,11.919,40.111c5.029,12.8,10.4,24.935,10.92,38.918.523,14.177-3.739,28.256-13.06,39.1C609.252.035,596.25,6.627,583.082,11.5c-13.415,4.961-26.785,10.3-38.766,18.237C532.059,37.849,522.23,48.8,511.623,58.842c-9.829,9.309-20.419,17.433-33.506,21.473a66.834,66.834,0,0,1-36.284,1C417.045,74.874,400.31,53.425,393.925,29.407Z" transform="translate(-318.606 304.52)" fill="#fff"/><path d="M438.907,30.24c15,9.274,34.59,8.657,49.68-.062,9.5-5.49,16.934-13.91,24.765-21.435a97.506,97.506,0,0,1,29.582-19.605c9.848-4.238,20.261-7.1,29.2-13.229a43.2,43.2,0,0,0,17.337-23.175c2.628-8.825,2.259-18.311-.09-27.154A113.547,113.547,0,0,0,584.406-87.9c-2.194-5.4-4.24-10.866-5.964-16.436a141.067,141.067,0,0,1-3.889-15.717c-1.793-9.714-3.664-19.642-8.306-28.47-4.934-9.383-13.1-16.438-22.329-21.446a82.735,82.735,0,0,0-29.539-9.2c-9.2-1.09-18.956-.585-27.517,3.229-17.977,8.011-22.586,28.51-27.12,45.769-2.641,10.053-5.8,19.409-11.1,28.4C442.91-92.022,436-83.053,429.774-73.627c-5.936,8.994-11.194,18.517-14.041,28.974a81.841,81.841,0,0,0-2.315,28.817C415.079,2.161,423.055,20.435,438.907,30.24ZM416.7-3.8A79.551,79.551,0,0,1,423.9-61.91c9.667-17.861,24.609-32.908,31.976-52.02,6.556-17.012,7.234-37.731,19.527-52.074,12.805-14.94,35.213-13.953,52.469-8.9,10.371,3.037,20.356,8,28.291,15.425,7.593,7.111,11.866,16.325,14.431,26.273,1.18,4.575,2.049,9.223,2.906,13.866a161.724,161.724,0,0,0,8.7,29.275c3.67,9.343,7.593,18.2,7.97,28.4a41.2,41.2,0,0,1-9.531,28.533c-6.784,7.893-16.272,12.7-25.883,16.257-9.79,3.621-19.547,7.52-28.291,13.309C517.516,2.359,510.343,10.35,502.6,17.68c-7.174,6.792-14.9,12.722-24.453,15.67a48.78,48.78,0,0,1-26.48.73C433.577,29.38,421.364,13.726,416.7-3.8Z" transform="translate(-310.035 315.851)" fill="#fff"/></g></g></svg>