<svg xmlns="http://www.w3.org/2000/svg" width="99.861" height="100.659" viewBox="0 0 99.861 100.659"><g transform="translate(2.508 2.526)" opacity="0.792"><g transform="translate(0 0)"><path d="M393.62,460.734c7.707-13.472,25.705-21.252,40.744-15.5,15.9,6.084,21.206,24.816,16.75,40.122-1.587,5.458-6.18,11.565-11.287,14.359-7.875,4.308-12.412-1.877-15.419-8.762-.915-2.093-1.461-4.342-2.5-6.378-4.552-8.929-16.971-3.97-24.312-8.381C391.57,472.575,390.288,466.559,393.62,460.734Z" transform="translate(-391.759 -405.543)" fill="none" stroke="#fff" stroke-width="5"/><path d="M435.483,466.93q.112-.42.266-.839c2.7-7.366,14.065-9.221,20.381-6,13.665,6.962,2.7,21.644-8.769,21.237C440.527,481.081,433.584,474.044,435.483,466.93Z" transform="translate(-367.644 -397.057)" fill="none" stroke="#fff" stroke-width="5"/><path d="M430.141,452.6q-.107-.476-.171-.976c-1.127-8.769,9.265-16.526,17.251-16.594,17.277-.143,13.944,20.233,2.274,25.784C442.538,464.125,431.941,460.7,430.141,452.6Z" transform="translate(-370.581 -410.154)" fill="none" stroke="#fff" stroke-width="5"/><path d="M411.055,449.232q.341-.271.666-.576c5.7-5.4,2.9-16.564-2.549-21.094-11.8-9.8-20.946,6.087-16.035,16.454C396.062,450.2,405.271,453.791,411.055,449.232Z" transform="translate(-391.781 -416.016)" fill="none" stroke="#fff" stroke-width="5"/><path d="M426.431,449.554c.322-.053.644-.123.97-.209,8.551-2.241,11.846-14.786,8.913-22.213-6.344-16.071-23.984-5.341-24.754,7.559C411.1,442.382,418.247,450.922,426.431,449.554Z" transform="translate(-380.789 -419.047)" fill="none" stroke="#fff" stroke-width="5"/></g></g></svg>