<svg xmlns="http://www.w3.org/2000/svg" width="140.999" height="81.004" viewBox="0 0 140.999 81.004"><path d="M196.825,4.375c-.121.107-.248.21-.38.308-3.491,2.592-9.319,0-11.27-3.408C180.956-6.1,190.5-9.576,195.689-5.9,198.784-3.717,199.866,1.653,196.825,4.375Z" transform="translate(-102.416 38.405)" fill="#c48931"/><path d="M182.419-9.51c-.121.107-.246.21-.378.308-3.491,2.595-9.319,0-11.27-3.408-4.219-7.377,5.325-10.85,10.514-7.178C184.379-17.6,185.461-12.23,182.419-9.51Z" transform="translate(-120.2 21.263)" fill="#c48931"/><path d="M183.144,5.058c-.121.107-.246.21-.38.308-3.488,2.595-9.319,0-11.267-3.408-4.221-7.377,5.323-10.85,10.514-7.178C185.1-3.032,186.185,2.338,183.144,5.058Z" transform="translate(-119.307 39.251)" fill="#c48931"/><path d="M193.356-8.152c-.121.107-.246.21-.38.308-3.488,2.592-9.319,0-11.267-3.408-4.219-7.377,5.323-10.852,10.512-7.18C195.316-16.244,196.4-10.872,193.356-8.152Z" transform="translate(-106.696 22.938)" fill="#c48931"/><path d="M205.89,14.722c-.118.107-.246.21-.378.308-3.491,2.592-9.319,0-11.27-3.408-4.219-7.379,5.325-10.852,10.514-7.18C207.852,6.63,208.932,12,205.89,14.722Z" transform="translate(-91.22 51.181)" fill="#c48931"/><path d="M207.631-1.548c-.118.105-.244.208-.378.306-3.488,2.595-9.319,0-11.27-3.408-4.219-7.377,5.325-10.85,10.514-7.178C209.593-9.64,210.675-4.27,207.631-1.548Z" transform="translate(-89.07 31.092)" fill="#c48931"/><path d="M181.26,20.868c-.118.107-.246.21-.378.308-3.491,2.595-9.319,0-11.27-3.408-4.219-7.377,5.325-10.85,10.514-7.18C183.222,12.779,184.3,18.149,181.26,20.868Z" transform="translate(-121.631 58.771)" fill="#c48931"/><path d="M170.759,7.906c-.121.107-.246.21-.38.308-3.488,2.595-9.319,0-11.268-3.408-4.219-7.377,5.323-10.852,10.512-7.18C172.719-.184,173.8,5.186,170.759,7.906Z" transform="translate(-134.597 42.765)" fill="#c48931"/><path d="M171.338-3.436c-.118.105-.244.208-.378.308-3.488,2.592-9.319,0-11.27-3.41-4.219-7.377,5.325-10.85,10.514-7.178C173.3-11.528,174.38-6.158,171.338-3.436Z" transform="translate(-133.882 28.761)" fill="#c48931"/><path d="M160.258,2.636c-.121.105-.246.21-.378.308-3.491,2.592-9.321,0-11.27-3.408-4.219-7.379,5.325-10.852,10.514-7.18C162.218-5.456,163.3-.086,160.258,2.636Z" transform="translate(-147.563 36.258)" fill="#c48931"/><path d="M216.863,5.034c-.121.107-.246.21-.378.308-3.491,2.592-9.321,0-11.27-3.408C201-5.443,210.539-8.918,215.73-5.246,218.823-3.058,219.9,2.314,216.863,5.034Z" transform="translate(-77.671 39.219)" fill="#c48931"/><path d="M195.081,20.644c-.118.107-.246.21-.378.308-3.491,2.595-9.319,0-11.27-3.408-4.219-7.377,5.325-10.85,10.514-7.18C197.043,12.555,198.123,17.925,195.081,20.644Z" transform="translate(-104.566 58.495)" fill="#c48931"/></svg>