<svg xmlns="http://www.w3.org/2000/svg" width="49.691" height="47.203" viewBox="0 0 49.691 47.203"><path d="M326.139,223.639q-4.16-.008-8.323,0v-8.377c0-3.217-1.14-6.112-4.7-6.877-4.62-.994-10.127,1.909-10.2,6.947-.041,2.768-.038,5.538-.031,8.307h-6.826c-4.05,0-9.016,2.107-9.016,6.872a1.655,1.655,0,0,0,.079.51c.5,4.2,3.909,5.9,7.939,5.9q3.927,0,7.854,0v8.282a14.382,14.382,0,0,0,.078,2.465c.491,2.778,3.058,4.428,5.718,4.646a2.451,2.451,0,0,0,.592.044,6.776,6.776,0,0,0,1.458-.175c3.866-.653,7.045-3.019,7.055-7.326.007-2.645,0-5.29,0-7.936h6.942c3.636,0,7.5-1.466,8.654-5.269C334.885,226.8,330.527,223.648,326.139,223.639Z" transform="translate(-285.541 -206.662)" fill="none" stroke="#fff" stroke-width="3" opacity="0.45"/></svg>