<svg xmlns="http://www.w3.org/2000/svg" width="474.092" height="369.528" viewBox="0 0 474.092 369.528"><path d="M729.849,368.528c-16.111,0-33.413-2.042-54.45-6.426-9.368-1.951-18.836-4.194-27.992-6.363-15.572-3.688-31.67-7.5-47.763-10a199.058,199.058,0,0,0-30.82-2.288,319.205,319.205,0,0,0-38.934,2.681c-1.815.221-3.733.458-5.424.667-15.258,1.885-31.036,3.835-46.659,3.835a127.807,127.807,0,0,1-31.978-3.6,86.649,86.649,0,0,1-14.95-5.294A76.41,76.41,0,0,1,417,333.412v-3.588a74.084,74.084,0,0,0,23.5,13.271c11.247,3.859,23.669,5.735,37.975,5.735,15.19,0,30.814-2.1,45.924-4.13,14.312-1.923,29.111-3.912,43.291-4.055.643-.006,1.207-.009,1.724-.009a192.134,192.134,0,0,1,20.144,1.1c6.289.658,12.811,1.6,19.937,2.892,13.239,2.393,26.6,5.637,39.526,8.774,18.354,4.455,37.332,9.062,56.254,11.305a186.992,186.992,0,0,0,21.942,1.3,183.93,183.93,0,0,0,56.55-8.852,176.719,176.719,0,0,0,51.111-26.205c17.153-12.714,30.981-28.8,39.989-46.51a109.063,109.063,0,0,0,9.973-28.766,99.115,99.115,0,0,0,1.057-31.037,107.914,107.914,0,0,0-8.1-29.488,111.287,111.287,0,0,0-40.475-48.682A198.587,198.587,0,0,0,808.025,130.2c-5.355-2.486-10.855-4.908-16.174-7.251l-.01,0c-8.324-3.666-16.93-7.456-25.186-11.58A191.219,191.219,0,0,1,742.72,97.408a222.737,222.737,0,0,1-27.487-22.934c-8.97-8.664-17.515-17.993-24.69-25.976A193.2,193.2,0,0,0,664.9,24.221a122.912,122.912,0,0,0-14.664-9.747,98.881,98.881,0,0,0-16.1-7.274,88.166,88.166,0,0,0-28.81-4.77,95.92,95.92,0,0,0-20.313,2.208,102.87,102.87,0,0,0-19.585,6.389,105.619,105.619,0,0,0-13.638,7.265,138.053,138.053,0,0,0-12.34,8.767c-7.9,6.246-15.11,13.047-22.741,20.248-1.61,1.519-3.275,3.091-4.933,4.642C492.9,69.6,474.95,83.737,456.881,95.155c-8.44,5.3-18.005,11.3-27.027,17.886-4.614,3.366-8.938,6.837-12.854,10.314v-3.832c11.879-9.944,25.478-18.479,37.476-26.01a324.422,324.422,0,0,0,30.13-21.538c9.374-7.551,18.876-15.989,29.9-26.555,1.239-1.187,2.492-2.4,3.7-3.568l.032-.031c6.52-6.3,13.26-12.816,20.726-18.347C557.019,10.1,576.954,2.106,596.619.359,599.3.121,602.033,0,604.732,0c19.324,0,38.617,6.1,55.793,17.649a147.12,147.12,0,0,1,20.029,16.5c6.205,5.991,12.161,12.464,17.92,18.724,4.791,5.207,9.742,10.589,14.824,15.681,4.9,4.911,10,9.6,15.146,13.926,5.173,4.35,10.576,8.49,16.058,12.3s11.252,7.445,17.119,10.773,12.027,6.464,18.329,9.334c4.651,2.118,9.455,4.206,14.1,6.224l0,0c9.006,3.914,18.316,7.96,27.17,12.5a152.674,152.674,0,0,1,25.2,15.821,116.636,116.636,0,0,1,35.41,47.161A105.574,105.574,0,0,1,888.5,255a108.231,108.231,0,0,1-9.908,29.62,125.3,125.3,0,0,1-17.286,25.642,151.336,151.336,0,0,1-22.8,21.283,173.494,173.494,0,0,1-26.443,16.541,197.651,197.651,0,0,1-30.753,12.52,176.164,176.164,0,0,1-32.462,6.888A170.674,170.674,0,0,1,729.849,368.528Zm-14.616-26.62c-13.55,0-28.106-1.718-45.809-5.405-7.882-1.642-15.847-3.529-23.551-5.353-13.1-3.1-26.642-6.311-40.18-8.411a167.5,167.5,0,0,0-25.931-1.925,268.557,268.557,0,0,0-32.752,2.254c-1.541.188-3.146.386-4.562.561-12.837,1.586-26.111,3.226-39.254,3.226-11.727,0-21.722-1.327-30.555-4.058a68.65,68.65,0,0,1-14.027-6.071,64.048,64.048,0,0,1-12.719-9.654,84.513,84.513,0,0,1-15.78-21.726,124.6,124.6,0,0,1-9.541-25.193,167.407,167.407,0,0,1-3.572-16.9V194.221a113.464,113.464,0,0,1,7.472-25.782,88.975,88.975,0,0,1,14.077-22.82A126.836,126.836,0,0,1,459.7,126.406c7.886-5.836,16.374-11.162,23.863-15.862a273.26,273.26,0,0,0,25.348-18.12c7.878-6.347,15.872-13.445,25.158-22.339,1.047-1,2.1-2.022,3.121-3.008A179.034,179.034,0,0,1,554.648,51.62c15.185-11.251,31.956-17.975,48.5-19.445,2.258-.2,4.553-.3,6.823-.3,16.259,0,32.491,5.135,46.939,14.849A123.793,123.793,0,0,1,673.757,60.6c5.219,5.039,10.229,10.484,15.073,15.749,4.032,4.382,8.2,8.911,12.477,13.2a190.225,190.225,0,0,0,26.251,22.067c4.621,3.215,9.467,6.264,14.4,9.063s10.118,5.438,15.419,7.852c3.916,1.783,7.953,3.537,11.858,5.234,15.2,6.6,30.909,13.431,44.069,23.832a97.131,97.131,0,0,1,17.465,17.952A98.11,98.11,0,0,1,843.1,197.267a88.82,88.82,0,0,1,5.6,49.132,91.044,91.044,0,0,1-8.335,24.919,105.4,105.4,0,0,1-14.542,21.572,127.311,127.311,0,0,1-19.179,17.9A145.957,145.957,0,0,1,784.4,324.709a166.2,166.2,0,0,1-25.872,10.534,148.192,148.192,0,0,1-27.31,5.795A143.6,143.6,0,0,1,715.233,341.908ZM580.252,318.443a189.327,189.327,0,0,1,33.723,3.356c11.139,2.014,22.383,4.743,33.256,7.382,15.44,3.747,31.406,7.623,47.323,9.51a157.377,157.377,0,0,0,18.459,1.091,154.732,154.732,0,0,0,47.576-7.447,148.668,148.668,0,0,0,43-22.046,113.262,113.262,0,0,0,33.642-39.128,91.758,91.758,0,0,0,8.391-24.2,83.39,83.39,0,0,0,.89-26.111,90.8,90.8,0,0,0-6.815-24.807,93.577,93.577,0,0,0-34.05-40.955A167.078,167.078,0,0,0,781,141.4c-4.513-2.1-9.149-4.137-13.632-6.112-7-3.083-14.237-6.271-21.182-9.739a160.838,160.838,0,0,1-20.128-11.733,187.423,187.423,0,0,1-23.124-19.295c-7.542-7.285-14.733-15.135-20.772-21.852A162.517,162.517,0,0,0,660.59,52.25a103.443,103.443,0,0,0-12.336-8.2,83.22,83.22,0,0,0-13.548-6.121,74.187,74.187,0,0,0-24.236-4.012,80.7,80.7,0,0,0-17.089,1.858A86.537,86.537,0,0,0,576.9,41.15a88.843,88.843,0,0,0-11.471,6.11,116.142,116.142,0,0,0-10.379,7.373c-6.648,5.253-12.709,10.973-19.127,17.028l-.03.028c-1.35,1.274-2.746,2.59-4.131,3.887-15.866,14.85-30.97,26.74-46.176,36.35-8.564,5.373-15.676,9.892-22.738,15.044a124.818,124.818,0,0,0-21.612,19.621,92.858,92.858,0,0,0-8.542,11.682,83.7,83.7,0,0,0-6.583,13.169,119.043,119.043,0,0,0-7.343,30.311,153.5,153.5,0,0,0-.153,31.24c1.281,13.7,4.813,33.862,14.369,52.069A81.731,81.731,0,0,0,448.838,306.5a62.8,62.8,0,0,0,22.968,14.015c9.462,3.247,19.913,4.826,31.949,4.826,12.779,0,25.924-1.767,38.636-3.475,12.039-1.618,24.487-3.291,36.416-3.412C579.33,318.445,579.8,318.443,580.252,318.443ZM696.008,306.9c-10.189,0-21.133-1.292-34.442-4.065-5.923-1.234-11.911-2.652-17.7-4.024h0c-9.849-2.333-20.031-4.745-30.211-6.324a125.9,125.9,0,0,0-19.5-1.448,202,202,0,0,0-24.628,1.7q-1.7.207-3.429.422c-9.652,1.193-19.632,2.426-29.514,2.426a77.265,77.265,0,0,1-22.975-3.051,51.623,51.623,0,0,1-10.547-4.565,48.155,48.155,0,0,1-9.564-7.259,63.527,63.527,0,0,1-11.866-16.336,93.634,93.634,0,0,1-7.173-18.943,124.457,124.457,0,0,1-3.806-22.164,114.256,114.256,0,0,1,.406-22.473,89.516,89.516,0,0,1,5.39-22.032,67.711,67.711,0,0,1,11.526-19.45,95.413,95.413,0,0,1,15.907-14.445c5.925-4.385,12.309-8.392,17.941-11.927a205.031,205.031,0,0,0,19.06-13.626c5.922-4.77,11.932-10.107,18.916-16.8.794-.76,1.6-1.535,2.372-2.285a134.293,134.293,0,0,1,13.1-11.6c11.416-8.461,24.026-13.517,36.466-14.621,1.7-.151,3.426-.227,5.134-.227a63.3,63.3,0,0,1,35.29,11.165c9.192,6.179,16.724,14.365,24.007,22.28,3.028,3.292,6.159,6.694,9.375,9.917A141.32,141.32,0,0,0,727.7,146.459c2.939,1.339,5.975,2.658,8.911,3.933l.01,0c11.424,4.964,23.236,10.1,33.131,17.917a73.786,73.786,0,0,1,22.4,29.833,66.793,66.793,0,0,1,4.214,36.943,68.457,68.457,0,0,1-6.267,18.736,79.26,79.26,0,0,1-10.935,16.22,95.719,95.719,0,0,1-14.421,13.462,109.734,109.734,0,0,1-16.726,10.463,124.971,124.971,0,0,1-19.453,7.92,111.445,111.445,0,0,1-20.535,4.357A107.769,107.769,0,0,1,696.008,306.9ZM594.523,289.26a142.368,142.368,0,0,1,25.358,2.524c8.374,1.514,16.828,3.566,25,5.55,11.61,2.818,23.611,5.731,35.576,7.151a118.317,118.317,0,0,0,13.878.82,116.351,116.351,0,0,0,35.773-5.6,111.8,111.8,0,0,0,32.333-16.577,85.149,85.149,0,0,0,25.3-29.42,68.994,68.994,0,0,0,6.308-18.2,62.7,62.7,0,0,0,.669-19.633,68.273,68.273,0,0,0-5.124-18.653,70.391,70.391,0,0,0-25.6-30.794,125.6,125.6,0,0,0-18.53-10.289c-3.395-1.576-6.881-3.112-10.252-4.6-10.525-4.635-21.407-9.429-31.058-16.144a140.968,140.968,0,0,1-17.387-14.508c-5.674-5.481-11.08-11.381-15.619-16.431a122.211,122.211,0,0,0-16.221-15.357,77.776,77.776,0,0,0-9.276-6.166,62.574,62.574,0,0,0-10.188-4.6,55.786,55.786,0,0,0-18.222-3.016,60.677,60.677,0,0,0-12.85,1.4A65.055,65.055,0,0,0,592,80.762,74.618,74.618,0,0,0,575.571,90.9c-5,3.949-9.555,8.25-14.38,12.8l-.011.01c-1.019.962-2.073,1.956-3.119,2.935a233.433,233.433,0,0,1-34.72,27.33c-6.436,4.039-11.781,7.436-17.1,11.314a93.8,93.8,0,0,0-16.251,14.751,69.8,69.8,0,0,0-6.423,8.784,62.922,62.922,0,0,0-4.95,9.9,89.527,89.527,0,0,0-5.52,22.792,115.474,115.474,0,0,0-.116,23.489c.963,10.3,3.618,25.461,10.8,39.151a61.459,61.459,0,0,0,11.917,16.117,47.218,47.218,0,0,0,17.269,10.538A73.135,73.135,0,0,0,537,294.443c9.609,0,19.492-1.328,29.051-2.613,9.053-1.216,18.414-2.474,27.383-2.565C593.8,289.262,594.158,289.26,594.523,289.26Zm85.748-11.021a122.267,122.267,0,0,1-25.14-2.966c-4.32-.9-8.687-1.935-12.91-2.935h-.006c-7.19-1.7-14.624-3.464-22.055-4.617a91.924,91.924,0,0,0-14.23-1.056,147.346,147.346,0,0,0-17.971,1.237q-1.217.148-2.452.3l-.045.006a176.907,176.907,0,0,1-21.548,1.772,56.376,56.376,0,0,1-16.766-2.227,37.671,37.671,0,0,1-7.7-3.332,35.145,35.145,0,0,1-6.979-5.3c-6.316-6.169-10.991-14.831-13.9-25.747A90.834,90.834,0,0,1,515.8,217.2a83.373,83.373,0,0,1,.3-16.4,65.333,65.333,0,0,1,3.933-16.079,49.4,49.4,0,0,1,8.41-14.194,69.593,69.593,0,0,1,11.61-10.544c4.32-3.2,8.982-6.123,13.1-8.7a150.02,150.02,0,0,0,13.908-9.942c4.332-3.491,8.719-7.386,13.806-12.259.6-.572,1.223-1.177,1.725-1.662a98.185,98.185,0,0,1,9.567-8.471c8.331-6.174,17.534-9.864,26.613-10.669,1.24-.11,2.5-.166,3.75-.166a46.188,46.188,0,0,1,25.753,8.148c6.71,4.51,12.206,10.483,17.521,16.26,2.211,2.4,4.5,4.887,6.843,7.238a103.108,103.108,0,0,0,30.77,21.391c2.144.976,4.358,1.938,6.5,2.869,8.343,3.625,16.966,7.373,24.19,13.082a53.3,53.3,0,0,1,9.584,9.851,53.838,53.838,0,0,1,6.763,11.921,48.739,48.739,0,0,1,3.076,26.961,49.97,49.97,0,0,1-4.574,13.675,57.851,57.851,0,0,1-7.981,11.838A75.234,75.234,0,0,1,718.224,268.8a91.258,91.258,0,0,1-14.2,5.779,81.358,81.358,0,0,1-14.986,3.18A78.921,78.921,0,0,1,680.271,278.239ZM606.2,265.362a103.875,103.875,0,0,1,18.5,1.841c6.112,1.1,12.281,2.6,18.248,4.051,8.471,2.056,17.231,4.182,25.964,5.218a86.356,86.356,0,0,0,10.128.6,84.921,84.921,0,0,0,26.108-4.087,81.585,81.585,0,0,0,23.6-12.1,62.156,62.156,0,0,0,18.461-21.472,50.353,50.353,0,0,0,4.6-13.28,45.753,45.753,0,0,0,.488-14.328,49.8,49.8,0,0,0-3.739-13.613,51.37,51.37,0,0,0-18.685-22.475,91.623,91.623,0,0,0-13.523-7.508c-2.477-1.15-5.021-2.271-7.482-3.355-7.684-3.384-15.625-6.882-22.667-11.782a102.862,102.862,0,0,1-12.69-10.588c-4.143-4-8.087-8.307-11.4-11.992a89.146,89.146,0,0,0-11.838-11.208,49.8,49.8,0,0,0-14.2-7.858,40.7,40.7,0,0,0-13.3-2.2,44.278,44.278,0,0,0-9.377,1.019,47.487,47.487,0,0,0-9.041,2.95c-8.892,3.917-15.5,10.148-22.486,16.744l-.009.008c-.743.7-1.511,1.426-2.274,2.14a170.259,170.259,0,0,1-25.339,19.946c-3.9,2.446-8.311,5.217-12.476,8.256-9.971,7.276-16.566,15.258-20.161,24.4a65.34,65.34,0,0,0-4.029,16.634,84.218,84.218,0,0,0-.084,17.142c.7,7.52,2.641,18.581,7.885,28.573a44.857,44.857,0,0,0,8.7,11.762,34.466,34.466,0,0,0,12.6,7.692,53.374,53.374,0,0,0,17.531,2.648,161.389,161.389,0,0,0,21.2-1.907,165.487,165.487,0,0,1,19.984-1.872C605.65,265.363,605.911,265.362,606.2,265.362Z" transform="translate(-416.5 0.5)" fill="#c48931" stroke="rgba(0,0,0,0)" stroke-miterlimit="10" stroke-width="1"/></svg>