<svg xmlns="http://www.w3.org/2000/svg" xmlns:xlink="http://www.w3.org/1999/xlink" width="117" height="584" viewBox="0 0 117 584"><defs><clipPath id="a"><rect width="117" height="584" transform="translate(0 2254)" fill="#fff" stroke="#707070" stroke-width="1"/></clipPath></defs><g transform="translate(0 -2254)" clip-path="url(#a)"><path d="M307.4,555.364c47.211-33.847,70.173-94.225,62.783-151.168-4.655-35.856-20.846-69.134-33.8-102.487A321.073,321.073,0,0,1,314.246,186.89c-.407-35.32,4.074-70.624-3.229-105.562-6.7-32.066-22.975-61.27-48.512-82.1C239-19.95,209.681-30.853,179.812-34.916c-15.739-2.141-31.458-1.826-47.3-1.969-19.205-.172-38.417-.874-57.542-2.693a465.52,465.52,0,0,1-52.731-8.09C-9.577-54.528-42.144-61.417-74.874-58.49c-34.79,3.113-66.6,19-93.526,40.73-26.5,21.382-48.74,48.532-65.428,78.173-14.973,26.593-25.807,56.907-25.054,87.782,1.58,64.823,58.085,104.825,104.825,140.489,27.228,20.774,51.674,42.243,72.325,69.748,22.37,29.793,40.882,62.19,61.665,93.061,19.831,29.454,42.134,57.515,70.325,79.429,25.083,19.5,54.42,34.1,84.707,43.562C191.8,592.244,257.491,591.149,307.4,555.364ZM175.724,579.745c-66-8.966-125.9-43.95-167.6-95.528-42.071-52.038-68.895-116.555-117.683-163.18-43.428-41.5-105.584-69.826-133.624-125.391-29.21-57.884,2.192-124.783,39.43-170.861,22.381-27.691,50.118-51.772,82.77-66.488C-89.739-55.784-56.3-57.1-22.791-52.3c15.411,2.21,30.647,5.459,45.859,8.74,32.956,7,66.407,9.953,100.056,10.646,33.07.682,64.968-.029,96.482,11.761,31.95,11.954,59.256,34.437,74.7,65.154,15.4,30.631,18.007,65.585,16.638,99.32-1.4,34.363-1.908,68.982,4.617,102.914,6.677,34.714,21.887,66.655,34.37,99.49,11.569,30.428,19.806,61.448,16.667,94.23-2.807,29.3-13.518,57.971-31.342,81.463C298.031,570.488,234.94,587.79,175.724,579.745Z" transform="translate(-263.393 2252.36)" fill="#c48931"/></g></svg>