<svg xmlns="http://www.w3.org/2000/svg" xmlns:xlink="http://www.w3.org/1999/xlink" width="235" height="413" viewBox="0 0 235 413"><defs><clipPath id="a"><rect width="235" height="413" transform="translate(1685 3529)" fill="#fff" stroke="#707070" stroke-width="1"/></clipPath></defs><g transform="translate(-1685 -3529)" clip-path="url(#a)"><path d="M949.714,560.188c-21.5-21.825-54.842-28.841-83.906-20.324-18.3,5.363-34.311,16.524-50.627,26.01a169.383,169.383,0,0,1-58.008,20.939c-18.369,3.106-37.131,3.663-54.736,10.331-16.158,6.12-30.039,16.991-38.8,32-8.065,13.82-11.344,29.987-11.013,45.883.174,8.375,1.627,16.539,2.85,24.8,1.483,10.021,2.691,20.088,3.312,30.2a245.678,245.678,0,0,1,.1,28.137c-.969,17.14-1.889,34.671,2.317,51.484,4.473,17.872,15.354,33.141,28.884,45.392A143.729,143.729,0,0,0,736.18,882.73c15.083,5.622,31.764,8.783,47.789,5.861,33.644-6.135,49.855-38.852,64.607-66.125,8.595-15.888,17.776-30.385,30.415-43.4,13.691-14.1,29.052-26.4,43.434-39.753,13.722-12.746,26.514-26.664,35.622-43.149a142.209,142.209,0,0,0,15.756-47.7C978.4,617.4,972.446,583.26,949.714,560.188ZM973.205,626.8c.735,35.12-12.583,69.2-36.04,95.152-23.665,26.182-55.082,45.444-75.378,74.685-18.065,26.026-27.729,60.732-54.381,79.893-27.765,19.962-65.194,9.082-92.251-6.545-16.263-9.391-31.081-21.871-41.423-37.676-9.9-15.127-13.323-32.44-13.564-50.293-.112-8.21.332-16.415.8-24.609a281.08,281.08,0,0,0-2.651-53c-2.355-17.285-5.338-33.848-1.777-51.232,3.61-17.627,13.087-33.7,27.826-44.26,14.7-10.535,32.7-14.755,50.385-16.805,18.019-2.089,36.1-4.659,53.242-10.839,17.539-6.322,32.936-16.865,49.02-26.059,14.906-8.52,30.392-15.354,47.73-16.4a84.78,84.78,0,0,1,45.011,9.655C958.361,563.831,972.545,595.284,973.205,626.8Z" transform="translate(1051.375 3022.299)" fill="#fff7eb" opacity="0.597"/></g></svg>