<svg xmlns="http://www.w3.org/2000/svg" xmlns:xlink="http://www.w3.org/1999/xlink" width="101.715" height="98.723" viewBox="0 0 101.715 98.723"><defs><clipPath id="a"><rect width="101.714" height="98.723" transform="translate(0 0)" fill="#f3aa31" stroke="#f3aa31" stroke-width="1"/></clipPath></defs><g transform="translate(0 0)" clip-path="url(#a)"><path d="M45.556,87.959c-5.568,0-11.137.034-16.705-.008C19.359,87.877,11.628,82.365,8.9,73.786c-2.706-8.512.519-17.053,7.791-23.047A63.937,63.937,0,0,0,28.069,38.685c9.251-13,25.823-12.963,35.1.062a66.266,66.266,0,0,0,11.6,12.2c7.074,5.893,10.211,14.5,7.478,22.912A20.269,20.269,0,0,1,62.79,87.94c-5.744.082-11.49.016-17.235.019m-.073-3.178c5.742,0,11.486.065,17.227-.016A17.132,17.132,0,0,0,72.863,53.672,52.807,52.807,0,0,1,60.491,40.7c-7.861-11.563-21.735-11.385-29.93-.044a72.253,72.253,0,0,1-11.942,12.6C12.361,58.554,9.6,65.692,11.995,72.984c2.385,7.257,8.843,11.743,17.057,11.794,5.477.033,10.953.006,16.431,0" transform="translate(5.488 5.111)" fill="#f3aa31" stroke="#f3aa31" stroke-width="1"/><path d="M17.3,32.8c0,1.59.106,3.188-.02,4.767A8.6,8.6,0,0,1,.1,37.374c-.135-3.086-.141-6.188,0-9.272A8.458,8.458,0,0,1,8.4,20.063a8.466,8.466,0,0,1,8.858,7.71c.153,1.664.025,3.353.025,5.03H17.3M3.25,32.6c0,1.5-.076,3,.016,4.49a5.478,5.478,0,0,0,5.262,5.26,5.4,5.4,0,0,0,5.581-5.189,81.936,81.936,0,0,0-.023-8.976A5.21,5.21,0,0,0,8.6,23.248a5.3,5.3,0,0,0-5.327,5.129c-.1,1.4-.017,2.816-.022,4.226" transform="translate(5.631 5.271)" fill="#f3aa31" stroke="#f3aa31" stroke-width="1"/><path d="M91.736,33.083c0,1.589.12,3.19-.023,4.766a8.647,8.647,0,0,1-8.411,7.69,8.45,8.45,0,0,1-8.631-7.395,67.605,67.605,0,0,1-.027-10.581,8.332,8.332,0,0,1,8.753-7.5,8.489,8.489,0,0,1,8.324,7.725c.141,1.755.024,3.53.024,5.3h-.009m-3.155-.245h-.009c0-1.585.114-3.18-.025-4.752a5.265,5.265,0,0,0-5.327-4.838A5.14,5.14,0,0,0,77.8,27.953a76.071,76.071,0,0,0-.02,9.5,5.312,5.312,0,0,0,5.3,4.9,5.44,5.44,0,0,0,5.476-5.025c.121-1.488.022-2.992.022-4.489" transform="translate(4.293 5.271)" fill="#f3aa31" stroke="#f3aa31" stroke-width="1"/><path d="M40.851,12.694c0,1.5.078,3.009-.015,4.506a8.742,8.742,0,0,1-8.7,8.289,8.654,8.654,0,0,1-8.6-8.1,75.871,75.871,0,0,1-.007-9.272,8.667,8.667,0,0,1,17.313.337c.068,1.41.011,2.826,0,4.24m-14.176-.149h.018c0,1.585-.13,3.184.027,4.753a5.5,5.5,0,0,0,5.541,5,5.436,5.436,0,0,0,5.374-5.166,86.922,86.922,0,0,0,.006-8.718A5.356,5.356,0,0,0,32.356,3.2,5.434,5.434,0,0,0,26.7,8.318c-.123,1.4-.021,2.817-.021,4.227" transform="translate(5.21 5.631)" fill="#f3aa31" stroke="#f3aa31" stroke-width="1"/><path d="M68.359,12.839c0,1.413.071,2.831-.013,4.24a8.673,8.673,0,0,1-17.34-.1c-.105-2.823-.1-5.657,0-8.481a8.673,8.673,0,0,1,17.339-.167c.091,1.5.015,3,.017,4.506m-14.186-.3c0,1.5-.086,3,.019,4.492a5.519,5.519,0,0,0,5.292,5.263,5.447,5.447,0,0,0,5.648-5.157,72.878,72.878,0,0,0-.021-8.981,5.323,5.323,0,0,0-5.52-4.964A5.425,5.425,0,0,0,54.2,8.312c-.115,1.4-.02,2.817-.025,4.227" transform="translate(4.715 5.631)" fill="#f3aa31" stroke="#f3aa31" stroke-width="1"/><path d="M31.739,55.221h6.675V48.375H53.042v6.654h6.885V69.52H53.242v6.995H38.528v-6.8H31.739Zm18.119-3.663H41.585v6.949H34.83v7.947h6.887v6.881h8.355v-7h6.672V58.2H49.858Z" transform="translate(5.06 4.762)" fill="#f3aa31" stroke="#f3aa31" stroke-width="1"/></g></svg>